<svg width="30" height="42" viewBox="0 0 30 42" fill="none" xmlns="http://www.w3.org/2000/svg">
<path d="M15 35.02L15.02 34.998" stroke="white" stroke-width="1.5" stroke-linecap="round" stroke-linejoin="round"/>
<path d="M27 33V39.8C27 39.9576 26.969 40.1136 26.9087 40.2592C26.8484 40.4048 26.76 40.5371 26.6485 40.6485C26.5371 40.76 26.4048 40.8484 26.2592 40.9087C26.1136 40.969 25.9576 41 25.8 41H4.2C4.04241 41 3.88637 40.969 3.74078 40.9087C3.59519 40.8484 3.4629 40.76 3.35147 40.6485C3.24004 40.5371 3.15165 40.4048 3.09134 40.2592C3.03104 40.1136 3 39.9576 3 39.8V33M27 9V2.2C27 1.88174 26.8736 1.57652 26.6485 1.35147C26.4235 1.12643 26.1183 1 25.8 1H4.2C3.88174 1 3.57652 1.12643 3.35147 1.35147C3.12643 1.57652 3 1.88174 3 2.2V9" stroke="white" stroke-width="1.5" stroke-linecap="round"/>
<path d="M22 14L29 21L22 28M8 14L1 21L8 28" stroke="white" stroke-width="1.5" stroke-linecap="round" stroke-linejoin="round"/>
</svg>
