<svg width="37" height="36" viewBox="0 0 37 36" fill="none" xmlns="http://www.w3.org/2000/svg">
<path d="M18.4981 1.5C15.2347 1.5 12.0445 2.46771 9.33111 4.28075C6.61774 6.0938 4.50289 8.67075 3.25404 11.6858C2.0052 14.7007 1.67844 18.0183 2.3151 21.219C2.95175 24.4197 4.52323 27.3597 6.8308 29.6673C9.13836 31.9748 12.0784 33.5463 15.2791 34.183C18.4798 34.8196 21.7974 34.4929 24.8123 33.244C27.8273 31.9951 30.4042 29.8803 32.2173 27.1669C34.0303 24.4535 34.9981 21.2634 34.9981 18C34.9931 13.6255 33.2531 9.43148 30.1598 6.33822C27.0666 3.24494 22.8726 1.50496 18.4981 1.5ZM32.2366 24H27.5956C27.976 22.2746 28.1872 20.5163 28.2263 18.75H33.4598C33.3751 20.5599 32.9606 22.3391 32.2366 24ZM3.5363 18.75H8.76981C8.80888 20.5163 9.02016 22.2746 9.40056 24H4.75955C4.03552 22.3391 3.62097 20.5599 3.5363 18.75ZM4.75955 12H9.40056C9.02016 13.7254 8.80888 15.4837 8.76981 17.25H3.5363C3.62097 15.4401 4.03552 13.6609 4.75955 12ZM19.2481 10.5V3.069C21.9773 3.519 24.3211 6.396 25.6321 10.5H19.2481ZM26.0543 12C26.4609 13.7219 26.6872 15.4813 26.7293 17.25H19.2481V12H26.0543ZM17.7481 3.069V10.5H11.3641C12.6751 6.396 15.0188 3.519 17.7481 3.069ZM17.7481 12V17.25H10.2691C10.3112 15.4813 10.5375 13.7219 10.9441 12H17.7481ZM10.2691 18.75H17.7481V24H10.9418C10.536 22.2781 10.3105 20.5186 10.2691 18.75ZM17.7481 25.5V32.931C15.0188 32.481 12.6751 29.604 11.3641 25.5H17.7481ZM19.2481 32.931V25.5H25.6321C24.3211 29.604 21.9773 32.481 19.2481 32.931ZM19.2481 24V18.75H26.7271C26.6849 20.5187 26.4586 22.2782 26.0521 24H19.2481ZM28.2263 17.25C28.1872 15.4837 27.976 13.7254 27.5956 12H32.2366C32.9606 13.6609 33.3751 15.4401 33.4598 17.25H28.2263ZM31.4686 10.5H27.2078C26.5569 8.05612 25.3328 5.80259 23.6371 3.92625C26.9343 5.1372 29.7045 7.46254 31.4686 10.5ZM13.3591 3.92625C11.6633 5.80259 10.4392 8.05612 9.78831 10.5H5.52755C7.2916 7.46254 10.0618 5.1372 13.3591 3.92625ZM5.52755 25.5H9.78831C10.4392 27.9439 11.6633 30.1974 13.3591 32.0737C10.0618 30.8628 7.2916 28.5374 5.52755 25.5ZM23.6371 32.0737C25.3328 30.1974 26.5569 27.9439 27.2078 25.5H31.4686C29.7045 28.5374 26.9343 30.8628 23.6371 32.0737Z" fill="white"/>
</svg>
