<svg width="48" height="48" viewBox="0 0 48 48" fill="none" xmlns="http://www.w3.org/2000/svg">
<path d="M43.92 26.8802H42.72C42.4944 19.493 38.2704 13.3154 31.9728 10.5602H39.84V11.7602C39.84 11.9512 39.9158 12.1343 40.0509 12.2693C40.1859 12.4043 40.369 12.4802 40.56 12.4802C40.7509 12.4802 40.9341 12.4043 41.0691 12.2693C41.2041 12.1343 41.28 11.9512 41.28 11.7602V7.9202C41.28 7.72924 41.2041 7.5461 41.0691 7.41108C40.9341 7.27605 40.7509 7.2002 40.56 7.2002C40.369 7.2002 40.1859 7.27605 40.0509 7.41108C39.9158 7.5461 39.84 7.72924 39.84 7.9202V9.1202H26.88V7.9202C26.88 7.72924 26.8041 7.5461 26.6691 7.41108C26.5341 7.27605 26.3509 7.2002 26.16 7.2002H22.32C22.129 7.2002 21.9459 7.27605 21.8109 7.41108C21.6758 7.5461 21.6 7.72924 21.6 7.9202V9.1202H8.63999V7.9202C8.63999 7.72924 8.56413 7.5461 8.4291 7.41108C8.29408 7.27605 8.11094 7.2002 7.91999 7.2002C7.72903 7.2002 7.54589 7.27605 7.41087 7.41108C7.27584 7.5461 7.19999 7.72924 7.19999 7.9202V11.7602C7.19999 11.9512 7.27584 12.1343 7.41087 12.2693C7.54589 12.4043 7.72903 12.4802 7.91999 12.4802C8.11094 12.4802 8.29408 12.4043 8.4291 12.2693C8.56413 12.1343 8.63999 11.9512 8.63999 11.7602V10.5602H16.4832C13.1837 11.9668 10.3663 14.3054 8.37633 17.2895C6.38635 20.2737 5.31027 23.7735 5.27999 27.3602H4.07999C3.88903 27.3602 3.70589 27.4361 3.57087 27.5711C3.43584 27.7061 3.35999 27.8892 3.35999 28.0802V31.9202C3.35999 32.1112 3.43584 32.2943 3.57087 32.4293C3.70589 32.5643 3.88903 32.6402 4.07999 32.6402H7.91999C8.11094 32.6402 8.29408 32.5643 8.4291 32.4293C8.56413 32.2943 8.63999 32.1112 8.63999 31.9202V28.0802C8.63999 27.8892 8.56413 27.7061 8.4291 27.5711C8.29408 27.4361 8.11094 27.3602 7.91999 27.3602H6.71999C6.76805 23.2463 8.29994 19.2882 11.0339 16.2138C13.7678 13.1395 17.5199 11.1557 21.6 10.6274V11.7602C21.6 11.9512 21.6758 12.1343 21.8109 12.2693C21.9459 12.4043 22.129 12.4802 22.32 12.4802H23.5584L16.0848 31.445C16.0216 31.6104 16.0216 31.7932 16.0848 31.9586L18.7632 39.2498L18.72 43.9154C18.7194 44.0103 18.7375 44.1045 18.7734 44.1924C18.8093 44.2803 18.8622 44.3602 18.9292 44.4276C18.9961 44.495 19.0757 44.5485 19.1633 44.5849C19.251 44.6214 19.345 44.6402 19.44 44.6402H28.56C28.7509 44.6402 28.9341 44.5643 29.0691 44.4293C29.2041 44.2943 29.28 44.1111 29.28 43.9202V39.2738L32.5488 32.0018C32.5864 31.913 32.6058 31.8175 32.6058 31.721C32.6058 31.6245 32.5864 31.529 32.5488 31.4402L24.9216 12.4802H26.16C26.3509 12.4802 26.5341 12.4043 26.6691 12.2693C26.8041 12.1343 26.88 11.9512 26.88 11.7602V10.6274C35.04 11.7458 40.9872 18.4514 41.28 26.8802H40.08C39.889 26.8802 39.7059 26.9561 39.5709 27.0911C39.4358 27.2261 39.36 27.4092 39.36 27.6002V31.4402C39.36 31.6312 39.4358 31.8143 39.5709 31.9493C39.7059 32.0843 39.889 32.1602 40.08 32.1602H43.92C44.1109 32.1602 44.2941 32.0843 44.4291 31.9493C44.5641 31.8143 44.64 31.6312 44.64 31.4402V27.6002C44.64 27.4092 44.5641 27.2261 44.4291 27.0911C44.2941 26.9561 44.1109 26.8802 43.92 26.8802ZM7.19999 31.2002H4.79999V28.8002H7.19999V31.2002ZM20.16 43.2002L20.1888 39.8402H27.84V43.2002H20.16ZM28.0944 38.4002H19.9824L17.5248 31.7186L23.52 16.5074V29.5202C23.52 29.7112 23.5958 29.8943 23.7309 30.0293C23.8659 30.1643 24.049 30.2402 24.24 30.2402C24.4309 30.2402 24.6141 30.1643 24.7491 30.0293C24.8841 29.8943 24.96 29.7112 24.96 29.5202V16.4354L31.1088 31.6802L28.0944 38.4002ZM25.44 11.0402H23.04V8.6402H25.44V11.0402ZM43.2 30.7202H40.8V28.3202H43.2V30.7202Z" fill="white"/>
</svg>
